<?xml version="1.0" encoding="UTF-8"?>
<!-- Generator: Adobe Illustrator 18.1.1, SVG Export Plug-In . SVG Version: 6.00 Build 0)  -->
<svg width="64" height="64" version="1.1" viewBox="0 0 64 64" xml:space="preserve" xmlns="http://www.w3.org/2000/svg">
<g transform="scale(.15141)" stroke-width="6.6045">
	<g stroke-width="6.6045">
		<path d="m211.34 422.69c-116.54 0-211.34-94.804-211.34-211.34 0-116.53 94.812-211.34 211.34-211.34s211.34 94.812 211.34 211.34c0 116.54-94.804 211.34-211.34 211.34zm0-406.43c-107.57 0-195.09 87.52-195.09 195.09s87.52 195.09 195.09 195.09 195.09-87.52 195.09-195.09-87.521-195.09-195.09-195.09z" fill="#010002"/>
	
	
		
			<path d="m231.9 104.65c0.366 11.323-7.934 20.37-21.134 20.37-11.689 0-19.996-9.055-19.996-20.37 0-11.689 8.681-20.744 20.744-20.744 12.461 0 20.386 9.055 20.386 20.744zm-36.969 233.88v-182.58h33.189v182.58h-33.189z" fill="#010002" stroke-width="6.6045"/>
		
	</g>
</g><g fill="#7000bd">















<path d="m29.086 63.817c-6.9458-0.83259-12.463-3.144-17.503-7.3328-6.0056-4.991-10.001-12.117-11.203-19.981-0.33151-2.1694-0.33855-6.8098-0.013522-8.9144 1.6099-10.424 7.779-19.129 16.931-23.889 4.6831-2.436 9.334-3.5786 14.586-3.5836 3.2904-0.003146 5.0625 0.21272 8.0685 0.98287 9.79 2.5082 17.905 9.6702 21.719 19.168 1.5552 3.8731 2.2147 7.4059 2.2052 11.812-0.01105 5.1226-0.9911 9.3411-3.235 13.925-1.6637 3.3984-3.6536 6.1261-6.4601 8.8553-4.7729 4.6415-10.465 7.5275-17.092 8.6664-1.195 0.20536-2.2644 0.27752-4.5548 0.30732-1.6462 0.02142-3.1981 0.01438-3.4486-0.01566zm6.1815-2.3988c10.13-1.1764 18.748-7.2365 23.268-16.362 6.6092-13.344 2.2094-29.53-10.267-37.769-5.3377-3.5249-11.508-5.1625-18.077-4.7976-13.31 0.73938-24.536 10.492-27.193 23.623-0.67632 3.3424-0.75498 7.3639-0.20834 10.652 2.1784 13.102 12.591 23.034 25.84 24.647 1.3227 0.16107 5.2748 0.16531 6.637 0.0071z"/><path d="m30.939 18.704c-0.72328-0.27587-1.3468-0.87531-1.6898-1.6244-1.2123-2.6481 1.6287-5.279 4.2543-3.9395 2.0419 1.0417 2.0211 4.3118-0.03414 5.3603-0.64406 0.32858-1.9311 0.43213-2.5304 0.20358z"/><path d="m29.606 37.414v-13.729h4.8151v27.459h-4.8151z"/></g></svg>
