<svg width="64" height="64" xmlns="http://www.w3.org/2000/svg"><g stroke-width="8"><path d="M60.51 3.49A11.84 11.84 0 0052.084 0H11.917C5.347 0 .001 5.346.001 11.917v40.166c0 6.57 5.346 11.916 11.916 11.916h40.167C58.654 64 64 58.654 64 52.084V11.917c0-3.183-1.24-6.176-3.49-8.427zm-.26 48.593c0 4.503-3.663 8.167-8.166 8.167H11.917c-4.503 0-8.166-3.664-8.166-8.167V11.917c0-4.503 3.663-8.167 8.166-8.167h40.167c2.181 0 4.232.85 5.774 2.392a8.113 8.113 0 012.392 5.775z"/><path d="M43.266 27.186a1.875 1.875 0 00-2.651 0l-6.74 6.74V13.925a1.875 1.875 0 00-3.75 0v20.003l-6.74-6.74a1.875 1.875 0 10-2.652 2.651l9.941 9.94a1.874 1.874 0 002.652 0l9.94-9.94a1.875 1.875 0 000-2.652zM50.075 48.2h-36.15a1.875 1.875 0 000 3.75h36.15a1.875 1.875 0 000-3.75z"/></g><g fill="#7000bd"><path d="M10.719 63.832c-1.542-.165-3.448-.778-4.73-1.522-1.315-.765-3.534-2.984-4.299-4.3C.908 56.664.344 54.846.157 53.066c-.202-1.913-.202-40.218 0-42.131.32-3.035 1.336-5.177 3.468-7.31C5.758 1.495 7.9.478 10.935.159c1.912-.202 40.217-.202 42.13 0 3.036.32 5.179 1.336 7.31 3.467 2.13 2.13 3.148 4.274 3.467 7.31.202 1.913.202 40.218 0 42.13-.32 3.036-1.336 5.177-3.468 7.31-2.132 2.132-4.274 3.148-7.309 3.468-1.739.183-40.622.173-42.346-.011zm42.639-3.623c3.427-.495 6.357-3.435 6.855-6.876.216-1.498.214-41.403-.003-42.772-.527-3.327-3.46-6.26-6.771-6.774-1.37-.213-41.28-.214-42.798-.001-3.35.469-6.316 3.402-6.85 6.775-.225 1.418-.223 41.475.002 42.877.258 1.614 1.19 3.365 2.414 4.54 1.188 1.141 2.884 2.015 4.318 2.225 1.333.196 41.483.2 42.833.006z"/><path d="M10.22 63.683c-2.216-.38-4.038-1.207-5.566-2.529C2.4 59.205 1.244 57.446.577 54.95l-.34-1.275V10.168L.6 8.914A12.262 12.262 0 018.914.6l1.254-.363h43.665L55.087.6A12.234 12.234 0 0163.4 8.914l.363 1.254v43.665l-.363 1.254c-1.141 3.94-4.256 7.085-8.23 8.31l-1.18.363-21.518.025c-11.833.013-21.847-.032-22.252-.102zm43.734-3.54c2.677-.567 5.152-2.84 6.039-5.544.293-.894.303-1.645.303-22.678 0-24.44.102-22.348-1.189-24.345-1.254-1.941-3.339-3.423-5.335-3.793-.539-.1-8.522-.157-21.833-.155-23.091.002-22.03-.04-23.93.972-2.017 1.075-3.83 3.494-4.229 5.64-.233 1.257-.217 42.413.017 43.536.234 1.121.936 2.582 1.704 3.547 1.07 1.343 3.154 2.613 4.745 2.89.39.069 10.144.132 21.675.14 17.654.014 21.134-.02 22.033-.21z"/><path d="M25.815 34.717c-5.27-5.27-5.48-5.503-5.48-6.077 0-1.157.663-1.842 1.785-1.842.28 0 .685.123.899.273.214.15 1.915 1.781 3.779 3.625 1.864 1.843 3.407 3.352 3.428 3.353.022 0 .04-4.687.04-10.415V13.218l.453-.453c.81-.81 1.752-.81 2.562 0l.453.453v10.416c0 5.728.051 10.416.114 10.416.062 0 1.75-1.632 3.751-3.626 3.45-3.438 3.668-3.626 4.23-3.626 1.18 0 1.836.664 1.836 1.857 0 .554-.26.842-5.48 6.062l-5.48 5.48h-1.41zM12.992 51.565c-.992-.605-1.094-1.943-.212-2.788l.482-.462 18.394-.044c10.116-.024 18.548-.006 18.736.04.188.046.558.265.822.487.895.753.79 2.159-.206 2.767-.468.285-1.164.296-19.008.296-17.844 0-18.54-.01-19.008-.296z"/></g></svg>