<svg width="256" height="256" xmlns="http://www.w3.org/2000/svg"><path d="M191.798 0H64C28.851 0 0 28.851 0 64.204V192c0 35.15 28.851 64 64 64h127.798c35.353 0 64.204-28.85 64.204-64.203V64.204C256.002 28.85 227.15 0 191.798 0zm-29.46 128H138.16v79.24h-30.477V128H91.43V95.494h14.223V81.677c0-13.004 6.501-33.524 33.93-33.524h24.99v27.022h-17.676c-2.844 0-6.705 1.829-6.705 8.127v12.19h24.991z"/><path d="M108.62 166.97v-39.103H92.482V95.591h13.359l.535-11.483c.816-17.523 6.067-26.777 18.382-32.396 4.522-2.064 8.836-2.647 22.655-3.062l17.069-.513v26.35h-10.36c-13.192 0-14.467 1.13-14.467 12.823v8.282h25.114l-.722 6.517c-.396 3.584-1.085 10.847-1.53 16.138l-.809 9.62h-24.536v78.207H108.62z" fill="#fff"/></svg>