<?xml version="1.0" encoding="UTF-8"?>
<!-- Generator: Adobe Illustrator 19.0.0, SVG Export Plug-In . SVG Version: 6.00 Build 0)  -->
<svg width="256" height="256" version="1.1" viewBox="0 0 256 256" xml:space="preserve" xmlns="http://www.w3.org/2000/svg">
<g transform="scale(.50794)" stroke-width="1.9688">
	<g stroke-width="1.9688">
		<path d="m377.6 0h-251.6c-69.2 0-126 56.8-126 126.4v251.6c0 69.2 56.8 126 126 126h251.6c69.6 0 126.4-56.8 126.4-126.4v-251.2c0-69.6-56.8-126.4-126.4-126.4zm-58 252h-47.6v156h-60v-156h-32v-64h28v-27.2c0-25.6 12.8-66 66.8-66h49.2v53.2h-34.8c-5.6 0-13.2 3.6-13.2 16v24h49.2z" stroke-width="1.9688"/>
	</g>
</g>















<path d="m108.62 166.97v-39.103h-16.138v-32.276h13.359l0.53466-11.483c0.8159-17.523 6.0672-26.777 18.382-32.396 4.5227-2.0635 8.8359-2.6465 22.655-3.0619l17.069-0.51315v26.351h-10.359c-13.193 0-14.468 1.1298-14.468 12.822v8.2816h25.114l-0.72119 6.5172c-0.39665 3.5845-1.0853 10.847-1.5303 16.138l-0.80907 9.6207h-24.536v78.207h-28.552z" fill="#fff"/></svg>
