<?xml version="1.0" encoding="UTF-8"?>
<svg width="64" height="57.846" enable-background="new 0 0 520 520" version="1.1" viewBox="0 0 65 58.75" xmlns="http://www.w3.org/2000/svg">
 <path d="m59.375 12.502v-4.377c0-3.1016-2.5234-5.625-5.625-5.625h-26.325l-0.98238-1.6042c-0.34088-0.5565-0.94638-0.89575-1.599-0.89575h-19.219c-3.1016 0-5.625 2.5234-5.625 5.625v47.5c0 3.1016 2.5234 5.625 5.625 5.625h53.75c3.1016 0 5.625-2.5234 5.625-5.625v-34.998c0-3.1016-2.5234-5.625-5.625-5.625zm-5.625-6.252c1.0339 0 1.875 0.84112 1.875 1.875v4.375h-22.076l-2.5094-4.0976-1.3182-2.1524zm7.5 46.875c0 1.0339-0.84112 1.875-1.875 1.875h-53.75c-1.0339 0-1.875-0.84112-1.875-1.875v-47.5c0-1.0339 0.84112-1.875 1.875-1.875h18.168l0.98225 1.6039c1.25e-4 1.25e-4 1.25e-4 2.5e-4 2.5e-4 3.75e-4l6.1252 10.002c0.34088 0.5565 0.94638 0.89575 1.599 0.89575h26.875c1.0339 0 1.875 0.84112 1.875 1.875v34.998z"/>
 <path transform="scale(1.0156)" d="m3.7458 57.456c-1.4962-0.54958-2.8402-1.9248-3.3872-3.4658-0.26334-0.74186-0.27978-2.2193-0.27978-25.143v-24.355l0.37278-0.9245c0.50467-1.2516 1.8649-2.6118 3.1165-3.1165l0.9245-0.37278h10.183c8.4758 0 10.253 0.037376 10.6 0.22295 0.22924 0.12262 0.6974 0.67048 1.0404 1.2175l0.62355 0.99451 27.209 0.087252 0.99176 0.45796c1.2453 0.57505 2.4025 1.7959 2.8592 3.0165 0.28397 0.75899 0.3264 1.2273 0.3264 3.603v2.7307l0.87401 0.09021c1.1406 0.11772 2.186 0.63591 3.0736 1.5235 0.91061 0.91061 1.3971 1.9197 1.5873 3.2925 0.09043 0.65259 0.13194 8.0565 0.10408 18.565-0.04319 16.289-0.06537 17.528-0.3255 18.189-0.60791 1.5448-1.9505 2.87-3.44 3.3955-0.94826 0.33457-55.541 0.3263-56.453-0.0085zm55.587-3.4684c1.1165-0.52983 1.0415 0.83233 1.0415-18.914 0-16.461-0.01973-17.798-0.26894-18.219-0.57405-0.97179 0.0411-0.93327-14.904-0.93327h-13.628l-0.50118-0.35468c-0.34287-0.24265-1.6102-2.172-4.0122-6.1084l-3.511-5.7537-9.2131-0.04652c-10.137-0.051186-9.8652-0.074832-10.446 0.90799-0.24483 0.41447-0.26479 2.2507-0.26479 24.36 0 22.215 0.019003 23.944 0.26777 24.365 0.58653 0.99292-1.3788 0.92772 28.083 0.93166 23.675 0.0032 26.913-0.0247 27.357-0.23541zm-4.4763-44.017c-4.73e-4 -2.1803-0.037898-2.5439-0.30684-2.985-0.16844-0.27624-0.44806-0.57815-0.6214-0.67092-0.21796-0.11665-4.0811-0.15621-12.526-0.12829l-12.211 0.040377 3.814 6.2266h21.853l-6.31e-4 -2.4828z" fill="#7000bd"/>
</svg>
