<svg width="64" height="57.846" viewBox="0 0 65 58.75" xmlns="http://www.w3.org/2000/svg"><path d="M59.375 12.502V8.125A5.631 5.631 0 0053.75 2.5H27.425L26.443.896a1.875 1.875 0 00-1.6-.896H5.626A5.631 5.631 0 000 5.625v47.5a5.631 5.631 0 005.625 5.625h53.75A5.631 5.631 0 0065 53.125V18.127a5.631 5.631 0 00-5.625-5.625zM53.75 6.25c1.034 0 1.875.841 1.875 1.875V12.5H33.549l-2.51-4.098-1.318-2.152zm7.5 46.875A1.877 1.877 0 0159.375 55H5.625a1.877 1.877 0 01-1.875-1.875v-47.5c0-1.034.841-1.875 1.875-1.875h18.168l.982 1.604 6.126 10.002c.34.557.946.896 1.599.896h26.875c1.034 0 1.875.841 1.875 1.875v34.998z"/><path d="M3.804 58.352c-1.52-.558-2.884-1.955-3.44-3.52C.097 54.08.08 52.58.08 29.297V4.562l.379-.939C.97 2.353 2.353.971 3.624.458L4.563.08h10.342c8.608 0 10.412.038 10.765.226.233.125.708.681 1.057 1.237l.633 1.01 27.633.088L56 3.106c1.265.584 2.44 1.824 2.904 3.064.289.77.332 1.246.332 3.66v2.772l.887.092c1.159.12 2.22.646 3.122 1.547.925.925 1.419 1.95 1.612 3.344.092.663.134 8.182.106 18.855-.044 16.543-.067 17.801-.33 18.472-.618 1.57-1.982 2.915-3.494 3.449-.964.34-56.408.331-57.334-.009zm56.454-3.522c1.134-.538 1.058.845 1.058-19.21 0-16.717-.02-18.075-.273-18.502-.583-.987.042-.948-15.136-.948H32.066l-.51-.36c-.347-.247-1.634-2.206-4.074-6.204l-3.566-5.844-9.356-.047C4.264 3.663 4.54 3.64 3.95 4.637c-.248.421-.268 2.286-.268 24.74 0 22.562.019 24.318.272 24.745.595 1.009-1.4.943 28.52.947 24.045.003 27.334-.026 27.784-.24zm-4.546-44.704c0-2.214-.038-2.583-.311-3.031-.171-.281-.455-.588-.631-.682-.222-.118-4.145-.158-12.722-.13l-12.401.04 3.873 6.325h22.194v-2.522z" fill="#7000bd"/></svg>