<svg width="256" height="256" viewBox="0 0 192 192" xmlns="http://www.w3.org/2000/svg"><path d="M141 34.125H51c-9.305 0-16.875 7.57-16.875 16.875v90c0 9.305 7.57 16.875 16.875 16.875h90c9.305 0 16.875-7.57 16.875-16.875V51c0-9.305-7.57-16.875-16.875-16.875zm-45 101.25c-21.709 0-39.375-17.666-39.375-39.375S74.291 56.625 96 56.625 135.375 74.291 135.375 96 117.709 135.375 96 135.375zm39.375-67.5c-6.202 0-11.25-5.048-11.25-11.25s5.048-11.25 11.25-11.25 11.25 5.048 11.25 11.25-5.048 11.25-11.25 11.25z"/><path d="M96 67.875c-15.507 0-28.125 12.618-28.125 28.125S80.493 124.125 96 124.125 124.125 111.507 124.125 96 111.507 67.875 96 67.875z"/><path d="M163.5 0h-135C12.993 0 0 12.993 0 28.5v135C0 179.007 12.993 192 28.5 192h135c15.507 0 28.5-12.993 28.5-28.5v-135C192 12.993 179.007 0 163.5 0zm5.625 141c0 15.507-12.618 28.125-28.125 28.125H51c-15.507 0-28.125-12.618-28.125-28.125V51c0-15.507 12.618-28.125 28.125-28.125h90c15.507 0 28.125 12.618 28.125 28.125z"/><g fill="#fff"><path d="M89.415 134.618c-7.476-1.327-15.122-5.34-20.749-10.89-18.178-17.934-14.796-47.433 6.997-61.015 10.971-6.838 24.947-7.63 36.784-2.083 8.22 3.852 14.47 9.945 18.532 18.066 8.466 16.926 3.536 37.18-11.886 48.823-2.892 2.184-9.81 5.454-13.647 6.452-3.44.894-12.56 1.262-16.03.647zm14.915-11.564c8.474-2.604 15.17-9.054 18.4-17.723 1.491-4.005 1.866-11.377.807-15.89-1.928-8.22-7.543-15.198-15.255-18.957-7.772-3.79-17.968-3.589-25.716.507-6.042 3.195-11.9 10.554-13.939 17.513-.962 3.285-1.092 10.566-.25 14.045 2.58 10.664 11.857 19.457 22.578 21.398 3.43.621 9.841.193 13.375-.893z"/><path d="M47.261 168.667c-8.64-1.145-17.343-7.474-21.082-15.328-3.16-6.637-2.994-3.424-2.994-57.928V46.144l1.19-3.344c1.812-5.093 3.323-7.47 7.252-11.407 2.606-2.612 4.486-4.046 6.827-5.208 6.366-3.16 4.062-3.047 58.967-2.906l49.267.126 3.258 1.19c9.028 3.299 16.005 10.995 18.118 19.988 1.005 4.28 1.026 98.633.023 102.885-1.876 7.954-8.031 15.387-15.624 18.863-5.882 2.694-4.97 2.652-56.696 2.579-25.942-.037-47.77-.147-48.506-.244zm99.765-11.648c5.145-2.077 8.864-6.129 10.339-11.261.64-2.226.702-7.576.594-50.838l-.122-48.35-1.46-2.964c-1.808-3.673-5.33-7.021-8.907-8.466l-2.562-1.034H46.815l-2.898 1.376c-3.505 1.664-6.702 4.789-8.366 8.178l-1.22 2.484v99.427l1.186 2.53c2.325 4.96 7.273 8.803 12.467 9.682 1.356.23 22.845.377 49.437.34l47.038-.068z"/><path d="M132.188 67.108c-8.202-2.617-10.375-13.172-3.86-18.747 7.106-6.083 17.887-1.103 17.887 8.263 0 3.226-.748 5.082-3.03 7.508-2.84 3.022-7.176 4.195-10.998 2.976z"/></g></svg>