<?xml version="1.0" encoding="UTF-8"?>
<svg width="192pt" height="192pt" version="1.1" viewBox="0 0 192 192" xmlns="http://www.w3.org/2000/svg">
 <g>
  <path d="m141 34.125h-90c-9.3047 0-16.875 7.5703-16.875 16.875v90c0 9.3047 7.5703 16.875 16.875 16.875h90c9.3047 0 16.875-7.5703 16.875-16.875v-90c0-9.3047-7.5703-16.875-16.875-16.875zm-45 101.25c-21.709 0-39.375-17.666-39.375-39.375 0-21.709 17.666-39.375 39.375-39.375 21.709 0 39.375 17.666 39.375 39.375 0 21.709-17.666 39.375-39.375 39.375zm39.375-67.5c-6.2022 0-11.25-5.0479-11.25-11.25s5.0478-11.25 11.25-11.25 11.25 5.0479 11.25 11.25-5.0478 11.25-11.25 11.25z"/>
  <path d="m96 67.875c-15.507 0-28.125 12.618-28.125 28.125 0 15.507 12.618 28.125 28.125 28.125 15.507 0 28.125-12.618 28.125-28.125 0-15.507-12.618-28.125-28.125-28.125z"/>
  <path d="m163.5 0h-135c-15.507 0-28.5 12.993-28.5 28.5v135c0 15.507 12.993 28.5 28.5 28.5h135c15.507 0 28.5-12.993 28.5-28.5v-135c0-15.507-12.993-28.5-28.5-28.5zm5.625 141c0 15.507-12.618 28.125-28.125 28.125h-90c-15.507 0-28.125-12.618-28.125-28.125v-90c0-15.507 12.618-28.125 28.125-28.125h90c15.507 0 28.125 12.618 28.125 28.125z"/>
 </g>
 <g fill="#fff">
  <path transform="scale(.75)" d="m119.22 179.49c-9.9682-1.7682-20.163-7.119-27.665-14.52-24.238-23.911-19.728-63.243 9.3293-81.353 14.628-9.117 33.263-10.172 49.045-2.7764 10.959 5.1358 19.293 13.259 24.709 24.087 11.289 22.568 4.7152 49.574-15.847 65.098-3.8571 2.9122-13.08 7.2721-18.197 8.6023-4.5862 1.1922-16.747 1.6828-21.373 0.86225zm19.887-15.418c11.298-3.4722 20.226-12.072 24.532-23.63 1.9896-5.3412 2.4895-15.17 1.0776-21.188-2.5713-10.959-10.058-20.263-20.34-25.276-10.363-5.0527-23.958-4.7843-34.288 0.67691-8.0569 4.2593-15.868 14.072-18.586 23.351-1.2831 4.3793-1.4565 14.088-0.33431 18.726 3.4402 14.219 15.811 25.943 30.105 28.531 4.5737 0.82822 13.122 0.2575 17.834-1.1906z"/>
  <path transform="scale(.75)" d="m63.015 224.89c-11.52-1.5279-23.125-9.9654-28.11-20.438-4.2131-8.8497-3.9917-4.5647-3.9917-77.237v-65.69l1.5866-4.4586c2.4166-6.7909 4.4306-9.9587 9.6693-15.209 3.4746-3.4823 5.9813-5.3945 9.1029-6.9441 8.4881-4.2136 5.416-4.0622 78.622-3.8748l65.69 0.16812 4.3437 1.587c12.038 4.3981 21.34 14.66 24.157 26.651 1.341 5.7069 1.3691 131.51 0.0306 137.18-2.5004 10.605-10.708 20.515-20.831 25.15-7.8428 3.5914-6.6271 3.5362-75.595 3.4385-34.59-0.049-63.694-0.19552-64.675-0.32562zm133.02-15.531c6.8596-2.7698 11.819-8.1723 13.785-15.015 0.8527-2.9685 0.93598-10.101 0.79144-67.784l-0.16154-64.466-1.9464-3.9533c-2.4111-4.8971-7.1087-9.3612-11.877-11.287l-3.4163-1.3796h-130.79l-3.8641 1.8349c-4.6737 2.2193-8.9357 6.3856-11.155 10.904l-1.6265 3.3119v132.57l1.5816 3.3738c3.1003 6.6134 9.6968 11.737 16.622 12.909 1.8079 0.30611 30.46 0.50262 65.916 0.45205l62.718-0.0894z"/>
  <path transform="scale(.75)" d="m176.25 89.477c-10.935-3.4885-13.833-17.562-5.1472-24.996 9.4758-8.1109 23.851-1.47 23.851 11.018 0 4.3015-0.99821 6.7752-4.0392 10.01-3.7888 4.0297-9.5693 5.5939-14.665 3.9683z"/>
 </g>
</svg>
