<svg width="256" height="255.8" xmlns="http://www.w3.org/2000/svg"><path d="M191.643 0H64.152C28.828 0 0 28.828 0 64.152v127.694c0 35.121 28.828 63.95 64.152 63.95h127.694c35.324 0 64.152-28.829 64.152-64.153V64.152C255.795 28.828 226.968 0 191.643 0zM85.265 207.072H48.723V101.506h36.542zM66.791 85.265c-10.354 0-18.677-8.323-18.677-18.677S56.437 47.91 66.79 47.91s18.677 8.323 18.677 18.677c-.203 10.354-8.526 18.677-18.677 18.677zm140.484 121.807H176.62v-51.159c0-12.384-1.624-28.218-18.474-28.218-17.256 0-20.098 13.398-20.098 27.406v51.971h-30.452V101.506h28.422v14.21h.812c4.466-8.12 14.82-14.413 31.06-14.413 33.498 0 39.385 19.286 39.385 47.91z"/><path d="M108.41 154.42v-52.384h27.331v6.833c0 3.758.225 6.832.499 6.832s2.513-2.014 4.975-4.476c6.002-6.002 12.291-8.362 23.893-8.968 24.97-1.304 37.538 8.305 40.712 31.123.553 3.977.98 21.516.98 40.237v33.186h-30.063v-30.81c0-33.682-.45-37.396-5.218-43.063-3.237-3.847-7.213-5.386-13.913-5.386-6.842 0-10.574 1.503-14.313 5.762-4.862 5.536-5.11 7.42-5.498 41.84l-.358 31.658H108.41zm-59.215 0v-52.384h35.53v104.77h-35.53zm10.469-71.343c-11.451-5.362-14.482-19.316-6.189-28.496 10.738-11.885 29.943-5.214 31.035 10.78.29 4.244-.06 6.024-1.833 9.343-4.546 8.503-14.781 12.228-23.013 8.373z" fill="#fff"/></svg>