<?xml version="1.0" encoding="UTF-8"?>
<!-- Generator: Adobe Illustrator 19.0.0, SVG Export Plug-In . SVG Version: 6.00 Build 0)  -->
<svg width="256" height="255.8" version="1.1" viewBox="0 0 256 255.8" xml:space="preserve" xmlns="http://www.w3.org/2000/svg">
<g transform="matrix(.50753 0 0 .50753 0 -.10151)" stroke-width="1.9703">
	<g stroke-width="1.9703">
		<path d="m377.6 0.2h-251.2c-69.6 0-126.4 56.8-126.4 126.4v251.6c0 69.2 56.8 126 126.4 126h251.6c69.6 0 126.4-56.8 126.4-126.4v-251.2c-0.4-69.6-57.2-126.4-126.8-126.4zm-209.6 408h-72v-208h72zm-36.4-240c-20.4 0-36.8-16.4-36.8-36.8s16.4-36.8 36.8-36.8 36.8 16.4 36.8 36.8c-0.4 20.4-16.8 36.8-36.8 36.8zm276.8 240h-60.4v-100.8c0-24.4-3.2-55.6-36.4-55.6-34 0-39.6 26.4-39.6 54v102.4h-60v-208h56v28h1.6c8.8-16 29.2-28.4 61.2-28.4 66 0 77.6 38 77.6 94.4z" stroke-width="1.9703"/>
	</g>
</g><g fill="#fff" stroke-width=".99999">















<path d="m108.41 154.42v-52.384h27.331v6.8327c0 3.758 0.22452 6.8327 0.4989 6.8327 0.2744 0 2.5133-2.0144 4.9753-4.4765 6.0016-6.0016 12.291-8.3621 23.893-8.968 24.969-1.304 37.538 8.305 40.712 31.123 0.55317 3.9772 0.98063 21.516 0.98063 40.237v33.186h-30.064v-30.809c0-33.683-0.45003-37.397-5.2183-43.064-3.2367-3.8466-7.2122-5.3854-13.913-5.3854-6.8413 0-10.574 1.5024-14.313 5.761-4.8614 5.5368-5.1089 7.4207-5.4979 41.84l-0.3578 31.658h-29.026z"/><path d="m49.195 154.42v-52.384h35.53v104.77h-35.53z"/><path d="m59.664 83.077c-11.451-5.362-14.482-19.316-6.1886-28.496 10.738-11.885 29.943-5.2143 31.035 10.78 0.28976 4.2442-0.05952 6.0241-1.8335 9.3427-4.5457 8.5036-14.781 12.228-23.013 8.3732z"/></g></svg>
