<svg width="32" height="32" xmlns="http://www.w3.org/2000/svg"><path d="M32 16c0-1.19-.857-2.459-1.915-2.833s-2.082-1.29-2.38-2.013-.22-2.098.262-3.111c.482-1.013.19-2.517-.652-3.359-.84-.841-2.345-1.133-3.359-.65-1.012.481-2.386.56-3.106.262s-1.638-1.325-2.014-2.382C18.46.857 17.19 0 16 0s-2.46.857-2.836 1.914-1.293 2.083-2.014 2.382-2.094.22-3.107-.263-2.517-.19-3.359.651-1.133 2.345-.65 3.359.558 2.387.258 3.11-1.32 1.64-2.378 2.014S0 14.81 0 16s.857 2.46 1.914 2.836c1.057.376 2.08 1.294 2.38 2.015.3.72.221 2.093-.26 3.106s-.191 2.517.65 3.359c.842.84 2.345 1.133 3.359.651s2.387-.56 3.107-.261c.722.299 1.637 1.328 2.014 2.383S14.81 32 16 32s2.46-.856 2.836-1.911c.376-1.055 1.292-2.083 2.012-2.383.721-.3 2.096-.22 3.108.262 1.014.482 2.518.19 3.36-.652.84-.841 1.133-2.345.651-3.358-.482-1.014-.561-2.387-.263-3.108s1.325-1.637 2.382-2.013C31.143 18.46 32 17.19 32 16zm-16 5.871a5.865 5.865 0 01-5.871-5.864A5.866 5.866 0 0116 10.136a5.865 5.865 0 015.865 5.87A5.863 5.863 0 0116 21.872z" fill="#fff"/></svg>