<?xml version="1.0" encoding="UTF-8"?>
<!-- Generator: Adobe Illustrator 19.0.0, SVG Export Plug-In . SVG Version: 6.00 Build 0)  -->
<svg width="256" height="255.8" version="1.1" viewBox="0 0 256 255.8" xml:space="preserve" xmlns="http://www.w3.org/2000/svg">
<g transform="matrix(.50753 0 0 .50753 0 -.10151)" stroke-width="1.9703">
	<g stroke-width="1.9703">
		<path d="m377.6 0.2h-251.2c-69.6 0-126.4 56.8-126.4 126.4v251.6c0 69.2 56.8 126 126.4 126h251.6c69.6 0 126.4-56.8 126.4-126.4v-251.2c-0.4-69.6-57.2-126.4-126.8-126.4zm-0.4 188.8v8.4c0 84-64.8 180.8-183.6 180.8-36.4 0-70.4-10.4-98.8-28.4 5.2 0.4 10 0.8 15.2 0.8 30.4 0 58-10 80-27.2-28.4-0.4-52-18.8-60.4-44 4 0.8 8 1.2 12 1.2 6 0 12-0.8 17.2-2.4-28.8-6-50.8-31.6-50.8-62.4v-0.8c8 4.8 18.4 7.6 28.8 8-17.2-11.2-28.8-30.8-28.8-52.8 0-11.6 3.2-22.4 8.8-32 32 38.4 79.2 63.6 132.8 66.4-1.2-4.8-1.6-9.6-1.6-14.4 0-35.2 28.8-63.6 64.4-63.6 18.4 0 35.2 7.6 47.2 20 14.8-2.8 28.4-8 40.8-15.6-4.8 14.8-15.2 27.2-28.4 35.2 13.2-1.6 25.6-4.8 37.2-10-8.8 12.8-19.6 24-32 32.8z" stroke-width="1.9703"/>
	</g>
</g>















<path d="m82.913 190.03c-7.749-1.3921-20.146-5.4496-26.305-8.6093l-4.4027-2.2587 8.6839-0.90998c11.712-1.2273 22.198-4.5996 30.396-9.7757l6.8042-4.2956-3.6983-0.80175c-11.879-2.5751-21.125-8.3945-24.882-15.661-2.4719-4.7801-2.4297-4.8467 3.0678-4.8467 9.2162 0 9.5636-1.3148 1.3847-5.2402-5.4872-2.6336-8.7927-5.2758-11.83-9.4569-3.764-5.1806-7.7736-15.849-6.4529-17.169 0.27764-0.27764 2.0164 0.0699 3.8639 0.77232 1.8475 0.70241 4.9041 1.2771 6.7923 1.2771h3.4333l-5.337-5.57c-8.4915-8.8622-10.972-20.984-6.63-32.403l1.2671-3.3328 6.4946 6.1142c15.632 14.716 33.66 23.268 54.556 25.879l6.758 0.84436 0.018-7.8788c0.018-7.8895 1.588-12.422 6.9394-20.031 3.188-4.5332 13.881-10.567 20.48-11.557 7.0212-1.0529 16.598 1.4008 22.689 5.8131 5.9116 4.2822 6.7118 4.3399 15.817 1.1397 3.8636-1.358 7.265-2.2287 7.5588-1.9351 0.87315 0.87316-4.4968 7.7755-8.7907 11.299l-3.9914 3.2754 5.5906-0.72c3.0748-0.396 6.9884-1.0608 8.6967-1.4772 2.5476-0.62114 1.8561 0.47839-3.8477 6.1174l-6.9537 6.8746-0.74166 10.327c-0.905 12.601-4.447 24.506-11.204 37.659-7.4669 14.534-23.714 30.54-38.128 37.565-5.808 2.8304-13.914 6.0344-18.014 7.12-9.1444 2.4214-31.231 3.4417-40.082 1.8517z" fill="#fff"/></svg>
