<svg width="256" height="255.8" xmlns="http://www.w3.org/2000/svg"><path d="M191.643 0H64.152C28.828 0 0 28.828 0 64.152v127.694c0 35.121 28.828 63.95 64.152 63.95h127.694c35.324 0 64.152-28.829 64.152-64.153V64.152C255.795 28.828 226.968 0 191.643 0zm-.203 95.822v4.263c0 42.632-32.888 91.761-93.182 91.761-18.474 0-35.73-5.278-50.144-14.414 2.639.203 5.075.407 7.714.407 15.43 0 29.437-5.076 40.603-13.805a32.71 32.71 0 01-30.655-22.332c2.03.406 4.06.61 6.09.61 3.045 0 6.09-.407 8.73-1.219-14.617-3.045-25.783-16.038-25.783-31.67v-.406c4.06 2.437 9.339 3.858 14.617 4.06-8.73-5.684-14.617-15.631-14.617-26.797 0-5.887 1.624-11.369 4.467-16.24 16.24 19.488 40.196 32.278 67.4 33.7-.61-2.437-.813-4.873-.813-7.31 0-17.864 14.617-32.278 32.685-32.278a33.268 33.268 0 0123.956 10.15c7.511-1.42 14.414-4.06 20.707-7.917-2.436 7.511-7.714 13.805-14.414 17.865 6.7-.812 12.993-2.436 18.88-5.075-4.466 6.496-9.947 12.18-16.24 16.647z"/><path d="M82.913 190.03c-7.749-1.392-20.146-5.45-26.305-8.61l-4.403-2.258 8.684-.91c11.712-1.227 22.198-4.6 30.396-9.776l6.804-4.295-3.698-.802c-11.879-2.575-21.125-8.395-24.882-15.661-2.472-4.78-2.43-4.847 3.068-4.847 9.216 0 9.563-1.315 1.385-5.24-5.488-2.634-8.793-5.276-11.83-9.457-3.764-5.18-7.774-15.849-6.453-17.169.277-.277 2.016.07 3.864.772 1.847.703 4.904 1.278 6.792 1.278h3.433l-5.337-5.57C55.94 98.622 53.46 86.5 57.801 75.082l1.267-3.333 6.495 6.114c15.632 14.716 33.66 23.268 54.556 25.879l6.758.844.018-7.878c.018-7.89 1.588-12.422 6.94-20.031 3.187-4.534 13.88-10.567 20.48-11.557 7.02-1.053 16.597 1.4 22.688 5.813 5.912 4.282 6.712 4.34 15.817 1.14 3.864-1.359 7.265-2.23 7.56-1.936.872.873-4.498 7.776-8.792 11.3l-3.991 3.275 5.59-.72c3.075-.396 6.989-1.061 8.697-1.478 2.548-.62 1.856.479-3.847 6.118l-6.954 6.874-.742 10.327c-.905 12.601-4.447 24.506-11.204 37.66-7.467 14.533-23.714 30.54-38.128 37.564-5.808 2.83-13.914 6.035-18.014 7.12-9.144 2.422-31.23 3.442-40.082 1.852z" fill="#fff"/></svg>