<svg width="256" height="256" xmlns="http://www.w3.org/2000/svg"><g stroke-width="1.969"><path d="M111.544 102.807v46.73l43.073-23.162z"/><path d="M191.798 0H64C28.851 0 0 28.851 0 64.204V192c0 35.15 28.851 64 64 64h127.798c35.353 0 64.204-28.85 64.204-64.203V64.204C256.002 28.85 227.15 0 191.798 0zm15.442 134.3c0 13.409-1.22 27.022-1.22 27.022s-1.422 11.378-6.095 16.457c-6.095 6.705-12.8 6.705-15.848 7.111-22.349 1.626-55.873 1.829-55.873 1.829s-41.651-.61-54.451-1.829c-3.454-.61-11.581-.406-17.676-7.111-4.877-5.08-6.096-16.457-6.096-16.457s-1.219-13.613-1.219-27.023v-12.597c0-13.41 1.22-27.022 1.22-27.022s1.422-11.378 6.095-16.457c6.095-6.705 12.8-6.908 15.847-7.315 22.553-1.625 56.077-1.828 56.077-1.828s33.524.203 55.873 1.828c3.048.407 9.956.61 16.051 7.112 4.876 5.079 6.095 16.66 6.095 16.66s1.22 13.613 1.22 27.022z"/></g><path d="M82.907 184.51c-13.003-.993-18.32-2.168-21.945-4.85-9.365-6.93-10.05-10.442-10.05-51.502 0-58.535-2.267-56.497 64.007-57.553 25.627-.409 53.609.048 62.182 1.014 13.589 1.532 16.231 2.401 20.609 6.78 7.14 7.139 9.03 19.884 8.286 55.88-.526 25.518-1.126 30.89-4.116 36.89-6.107 12.255-9.961 13.167-59.042 13.96-23.523.38-50.492.102-59.93-.619zm66.756-54.139c3.138-1.575 5.7-3.31 5.694-3.856-.012-1.12-2.687-2.688-26.76-15.688l-17.117-9.243v49.371l16.239-8.86c8.931-4.873 18.807-10.149 21.945-11.724z" fill="#fff"/></svg>