<?xml version="1.0" encoding="iso-8859-1"?>
<!-- Generator: Adobe Illustrator 19.0.0, SVG Export Plug-In . SVG Version: 6.00 Build 0)  -->
<svg version="1.1" id="Capa_1" xmlns="http://www.w3.org/2000/svg" xmlns:xlink="http://www.w3.org/1999/xlink" x="0px" y="0px"
	 viewBox="0 0 508.1 508.1" style="enable-background:new 0 0 508.1 508.1;" xml:space="preserve">
<g>
	<g>
		<path d="M415.5,336.7l-31.2-81.1c-6-15.7-21.4-26.3-38.2-26.3h-32.2c25.5-41.4,50.6-89.4,50.6-118.8C364.5,49.6,314.9,0,253.9,0
			S143.3,49.6,143.3,110.6c0,29.4,25,77.4,50.6,118.8h-32.2c-16.8,0-32.2,10.6-38.2,26.3l-31.2,81.1c-10.7,2.7-18.6,12.3-18.6,23.8
			v81.9c0,13.6,11,24.6,24.6,24.6h16.4v28.7c0,6.8,5.5,12.3,12.3,12.3h41c6.8,0,12.3-5.5,12.3-12.3V467h147.5v28.7
			c0,6.8,5.5,12.3,12.3,12.3h41c6.8,0,12.3-5.5,12.3-12.3V467h16.4c13.6,0,24.6-11,24.6-24.6v-81.9
			C434.2,349,426.2,339.4,415.5,336.7z M159.7,110.6c0-51.9,42.2-94.2,94.2-94.2s94.2,42.3,94.2,94.2c0,45.2-71.9,147.9-94.2,178.7
			C222.5,246.3,159.7,151.6,159.7,110.6z M138.8,261.6c3.6-9.4,12.8-15.8,22.9-15.8h42.5c21.7,33.7,49.7,71,49.7,71s28-37.3,49.7-71
			h42.5c10.1,0,19.3,6.3,22.9,15.8l28.6,74.4H110.2L138.8,261.6z M163.8,491.6H131V467h32.8V491.6z M376.8,491.6H344V467h32.8V491.6
			z M417.8,442.5c0,4.5-3.7,8.2-8.2,8.2H98.2c-4.5,0-8.2-3.7-8.2-8.2v-81.9c0-4.5,3.7-8.2,8.2-8.2h311.4c4.5,0,8.2,3.7,8.2,8.2
			V442.5z"/>
	</g>
</g>
<g>
	<g>
		<path d="M147.4,368.7c-18.1,0-32.8,14.7-32.8,32.8s14.7,32.8,32.8,32.8c18.1,0,32.8-14.7,32.8-32.8
			C180.2,383.4,165.5,368.7,147.4,368.7z M147.4,417.9c-9,0-16.4-7.3-16.4-16.4c0-9,7.3-16.4,16.4-16.4s16.4,7.3,16.4,16.4
			C163.8,410.5,156.4,417.9,147.4,417.9z"/>
	</g>
</g>
<g>
	<g>
		<path d="M360.4,368.7c-18.1,0-32.8,14.7-32.8,32.8s14.7,32.8,32.8,32.8c18.1,0,32.8-14.7,32.8-32.8
			C393.2,383.4,378.5,368.7,360.4,368.7z M360.4,417.9c-9,0-16.4-7.3-16.4-16.4c0-9,7.3-16.4,16.4-16.4c9,0,16.4,7.3,16.4,16.4
			C376.8,410.5,369.5,417.9,360.4,417.9z"/>
	</g>
</g>
<g>
	<g>
		<rect x="204.7" y="393.3" width="98.3" height="16.4"/>
	</g>
</g>
<g>
	<g>
		<path d="M253.9,41c-40.7,0-73.7,33.1-73.7,73.7c0,40.6,33.1,73.7,73.7,73.7c40.6,0,73.7-33,73.7-73.7C327.6,74,294.6,41,253.9,41z
			 M253.9,172.1c-31.7,0-57.4-25.8-57.4-57.4c0-31.6,25.7-57.4,57.4-57.4s57.4,25.7,57.4,57.4C311.3,146.4,285.6,172.1,253.9,172.1z
			"/>
	</g>
</g>
<g>
</g>
<g>
</g>
<g>
</g>
<g>
</g>
<g>
</g>
<g>
</g>
<g>
</g>
<g>
</g>
<g>
</g>
<g>
</g>
<g>
</g>
<g>
</g>
<g>
</g>
<g>
</g>
<g>
</g>
</svg>
