<?xml version="1.0" encoding="UTF-8" standalone="no"?>
<!-- Generator: Adobe Illustrator 19.0.0, SVG Export Plug-In . SVG Version: 6.00 Build 0)  -->

<svg
   version="1.1"
   id="Capa_1"
   x="0px"
   y="0px"
   viewBox="0 0 62.418299 63.999994"
   xml:space="preserve"
   sodipodi:docname="settings.svg"
   width="62.418301"
   height="63.999996"
   inkscape:version="1.1 (c68e22c387, 2021-05-23)"
   xmlns:inkscape="http://www.inkscape.org/namespaces/inkscape"
   xmlns:sodipodi="http://sodipodi.sourceforge.net/DTD/sodipodi-0.dtd"
   xmlns="http://www.w3.org/2000/svg"
   xmlns:svg="http://www.w3.org/2000/svg"><defs
   id="defs81" /><sodipodi:namedview
   id="namedview79"
   pagecolor="#ffffff"
   bordercolor="#666666"
   borderopacity="1.0"
   inkscape:pageshadow="2"
   inkscape:pageopacity="0.0"
   inkscape:pagecheckerboard="true"
   showgrid="false"
   fit-margin-top="0"
   fit-margin-left="0"
   fit-margin-right="0"
   fit-margin-bottom="0"
   inkscape:zoom="8.6509757"
   inkscape:cx="32.944261"
   inkscape:cy="51.034706"
   inkscape:window-width="1920"
   inkscape:window-height="1001"
   inkscape:window-x="-9"
   inkscape:window-y="-9"
   inkscape:window-maximized="1"
   inkscape:current-layer="Capa_1" />
<path
   style="fill:#455a64;stroke-width:1"
   d="m 61.23947,39.013887 -5.872483,-4.592069 c 0.182061,-1.602732 0.182061,-3.220937 0,-4.823669 l 5.877848,-4.594689 c 1.101473,-0.887093 1.39584,-2.442657 0.6948,-3.671035 L 55.830187,10.772039 C 55.126528,9.5359245 53.627866,8.9961068 52.297663,9.4996122 l -6.92142,2.7845658 C 44.075614,11.340557 42.682395,10.53158 41.218049,9.8697229 L 40.155884,2.517047 C 39.96434,1.105485 38.753306,0.05629707 37.328767,0.06790202 H 25.083291 C 23.670606,0.05941668 22.469306,1.0968748 22.272147,2.4957089 L 21.207361,9.8695982 C 19.747507,10.537819 18.356534,11.34742 17.054533,12.286798 L 10.114395,9.4968669 C 8.7979186,8.9778883 7.3006296,9.5112171 6.6084496,10.745335 L 0.49363579,21.324439 c -0.7198817,1.230375 -0.4235186,2.803034 0.69480001,3.687007 l 5.8724828,4.592069 c -0.183808,1.602607 -0.183808,3.221061 0,4.823669 L 1.18307,39.019252 c -1.10334441,0.885845 -1.39908361,2.442282 -0.69742041,3.671035 L 6.5924776,53.253418 c 0.702786,1.236989 2.202321,1.777181 3.5325234,1.272427 l 6.921421,-2.784565 c 1.301752,0.944119 2.695844,1.75397 4.160814,2.4172 l 1.064786,7.34731 c 0.187426,1.407819 1.390972,2.457506 2.811145,2.451766 h 12.245475 c 1.415306,0.01135 2.620474,-1.026478 2.819131,-2.427807 l 1.064786,-7.37389 c 1.459729,-0.66847 2.850577,-1.478072 4.152827,-2.4172 l 6.948,2.792552 c 1.316477,0.517731 2.813017,-0.01522 3.505945,-1.248469 l 6.133407,-10.621655 c 0.686689,-1.226631 0.384835,-2.769716 -0.713268,-3.6472 z M 31.205967,45.32299 c -7.351054,0 -13.310386,-5.959208 -13.310386,-13.310386 0,-7.351179 5.959207,-13.310386 13.310386,-13.310386 7.351178,0 13.310386,5.959207 13.310386,13.310386 -0.0089,7.34756 -5.962951,13.301651 -13.310386,13.310386 z"
   id="path46" />
<g
   id="g48"
   transform="matrix(0.12478448,0,0,0.12478448,-0.73436831,0.06777724)"
   style="stroke-width:8.01382">
</g>
<g
   id="g50"
   transform="matrix(0.12478448,0,0,0.12478448,-0.73436831,0.06777724)"
   style="stroke-width:8.01382">
</g>
<g
   id="g52"
   transform="matrix(0.12478448,0,0,0.12478448,-0.73436831,0.06777724)"
   style="stroke-width:8.01382">
</g>
<g
   id="g54"
   transform="matrix(0.12478448,0,0,0.12478448,-0.73436831,0.06777724)"
   style="stroke-width:8.01382">
</g>
<g
   id="g56"
   transform="matrix(0.12478448,0,0,0.12478448,-0.73436831,0.06777724)"
   style="stroke-width:8.01382">
</g>
<g
   id="g58"
   transform="matrix(0.12478448,0,0,0.12478448,-0.73436831,0.06777724)"
   style="stroke-width:8.01382">
</g>
<g
   id="g60"
   transform="matrix(0.12478448,0,0,0.12478448,-0.73436831,0.06777724)"
   style="stroke-width:8.01382">
</g>
<g
   id="g62"
   transform="matrix(0.12478448,0,0,0.12478448,-0.73436831,0.06777724)"
   style="stroke-width:8.01382">
</g>
<g
   id="g64"
   transform="matrix(0.12478448,0,0,0.12478448,-0.73436831,0.06777724)"
   style="stroke-width:8.01382">
</g>
<g
   id="g66"
   transform="matrix(0.12478448,0,0,0.12478448,-0.73436831,0.06777724)"
   style="stroke-width:8.01382">
</g>
<g
   id="g68"
   transform="matrix(0.12478448,0,0,0.12478448,-0.73436831,0.06777724)"
   style="stroke-width:8.01382">
</g>
<g
   id="g70"
   transform="matrix(0.12478448,0,0,0.12478448,-0.73436831,0.06777724)"
   style="stroke-width:8.01382">
</g>
<g
   id="g72"
   transform="matrix(0.12478448,0,0,0.12478448,-0.73436831,0.06777724)"
   style="stroke-width:8.01382">
</g>
<g
   id="g74"
   transform="matrix(0.12478448,0,0,0.12478448,-0.73436831,0.06777724)"
   style="stroke-width:8.01382">
</g>
<g
   id="g76"
   transform="matrix(0.12478448,0,0,0.12478448,-0.73436831,0.06777724)"
   style="stroke-width:8.01382">
</g>
<path
   style="fill:#ffffff;stroke-width:0.999999"
   d="m 29.005571,0.00594254 c -1.604961,0.0412561 -3.223585,-0.0775805 -4.820556,0.10470463 -1.021749,0.32060652 -1.883178,1.25719593 -1.970582,2.34939973 -0.431065,2.4055572 -0.69085,4.8447943 -1.116372,7.2472497 -0.569059,0.4691164 -1.325009,0.6799854 -1.939665,1.0966094 -0.729429,0.41769 -1.427636,0.886295 -2.127241,1.351438 -2.441703,-0.977963 -4.879402,-1.969989 -7.3235874,-2.9392188 -0.811544,0.00606 -1.690031,0.00556 -2.351471,0.5522095 -0.757467,0.4973223 -1.017419,1.4383473 -1.528357,2.1448813 -1.832236,3.159141 -3.7294056,6.284467 -5.43521841,9.514305 -0.45924,0.749776 -0.5300636,1.69441 -0.1351438,2.485819 0.4170615,1.091718 1.54668281,1.609219 2.36420951,2.354214 1.4087863,1.115507 2.8277387,2.218387 4.2415847,3.327725 0.0034,1.612536 0.0068,3.225072 0.0102,4.837608 -2.002133,1.589166 -4.0700676,3.101023 -6.01183061,4.763025 -1.0122467,0.97142 -1.1154438,2.655173 -0.2982872,3.780114 2.06012621,3.657065 4.13784981,7.308246 6.35665281,10.871682 0.580426,0.657136 1.465275,1.014872 2.341431,0.909368 0.9118754,0.0987 1.6843314,-0.514496 2.5263744,-0.77034 1.748176,-0.706947 3.49637,-1.41385 5.244558,-2.120767 1.273401,0.922949 2.655262,1.682471 4.064197,2.375854 0.439762,2.672974 0.736694,5.372229 1.272233,8.027834 0.437703,0.957429 1.407277,1.807613 2.519511,1.699472 4.44147,0.06256 8.88581,0.01205 13.326427,0.0037 0.966325,-0.394018 1.84201,-1.199591 1.960942,-2.285234 0.467488,-2.441585 0.707529,-4.926991 1.147527,-7.369425 0.566659,-0.467647 1.319943,-0.677462 1.931696,-1.093582 0.732761,-0.420154 1.434321,-0.891153 2.137441,-1.35845 2.441009,0.979503 4.877971,1.973243 7.321515,2.94384 0.811565,-0.0063 1.689537,-0.0067 2.351312,-0.552528 0.758488,-0.494803 1.018129,-1.435782 1.528596,-2.141486 1.833683,-3.160864 3.732972,-6.287612 5.438167,-9.52025 0.481141,-0.780139 0.513044,-1.768099 0.09562,-2.580735 -0.450363,-1.044896 -1.553582,-1.548526 -2.353168,-2.283692 -1.400821,-1.10776 -2.811497,-2.202913 -4.217244,-3.304447 8.74e-4,-1.610517 0.0017,-3.221034 0.0027,-4.831553 2.023877,-1.611572 4.106914,-3.154239 6.076214,-4.831074 0.568542,-0.637891 0.879225,-1.49089 0.736355,-2.346262 -0.04626,-0.950609 -0.773826,-1.67583 -1.147843,-2.509196 -1.876177,-3.248715 -3.68314,-6.542612 -5.703288,-9.704707 -0.564465,-0.6933674 -1.477233,-1.0358916 -2.361353,-0.9360503 -0.911949,-0.099354 -1.683974,0.515212 -2.525839,0.7714113 -1.738357,0.704402 -3.476751,1.408722 -5.215131,2.11307 C 44.113741,11.260848 42.735405,10.484674 41.322628,9.778056 40.882659,7.151231 40.631302,4.4907678 40.089282,1.8824981 39.773593,1.0121585 38.982519,0.2529272 38.059414,0.07877361 c -2.850218,-0.14279873 -5.708915,-0.0413251 -8.562352,-0.0729376 -0.163831,3.552e-5 -0.32766,7.104e-5 -0.491491,1.0653e-4 z M 31.210584,18.864888 c 2.393707,-0.127404 4.750696,0.660295 6.796239,1.862371 3.669253,2.154383 6.144341,6.202199 6.359747,10.449107 0.310762,4.258069 -1.63063,8.59145 -5.01239,11.197546 -2.578414,2.043654 -5.930079,3.051558 -9.212635,2.796539 -4.416411,-0.341983 -8.58943,-3.079807 -10.613575,-7.039593 -2.079931,-3.873761 -2.019972,-8.794053 0.192676,-12.604238 1.841412,-3.317381 5.187703,-5.689102 8.886491,-6.459912 0.849556,-0.213858 1.728301,-0.200311 2.603447,-0.20182 z"
   id="path471" /></svg>
