<?xml version="1.0" encoding="UTF-8"?>
<!-- Generator: Adobe Illustrator 19.0.0, SVG Export Plug-In . SVG Version: 6.00 Build 0)  -->
<svg width="64" height="64" version="1.1" viewBox="0 0 64 64" xml:space="preserve" xmlns="http://www.w3.org/2000/svg">
<g transform="scale(.125)" stroke-width="8">
	<g stroke-width="8">
		<path d="m484.08 27.923c-18.006-18.005-41.947-27.921-67.411-27.921l-321.33-2e-3c-52.568 3e-3 -95.334 42.77-95.333 95.334l-1e-3 321.33c1e-3 52.566 42.768 95.332 95.335 95.332h321.33c52.567 0 95.333-42.766 95.333-95.333v-321.33c0-25.465-9.916-49.406-27.922-67.412zm-2.078 388.74c0 36.025-29.308 65.333-65.333 65.333h-321.33c-36.025 0-65.334-29.309-65.335-65.333l1e-3 -321.33c-1e-3 -36.023 29.308-65.331 65.334-65.333l321.33 2e-3c17.451 0 33.858 6.795 46.198 19.134 12.34 12.34 19.135 28.747 19.135 46.199z"/>
	


	
		<path d="m346.13 217.49c-5.857-5.857-15.355-5.858-21.213 0l-53.918 53.92-1e-3 -160.01c0-8.284-6.716-15-15-15s-15 6.716-15 15l1e-3 160.02-53.922-53.921c-5.857-5.858-15.355-5.858-21.213 0s-5.858 15.355 0 21.213l79.528 79.526c2.813 2.814 6.628 4.394 10.606 4.394s7.794-1.581 10.607-4.394l79.526-79.528c5.857-5.858 5.857-15.355-1e-3 -21.213z"/>
	


	
		<path d="m400.6 385.6h-289.2c-8.284 0-15 6.716-15 15s6.716 15 15 15h289.2c8.284 0 15-6.716 15-15 0-8.285-6.716-15-15-15z"/>
	</g>
</g><g fill="#7000bd">















<path d="m10.719 63.832c-1.5416-0.1646-3.4482-0.77836-4.7291-1.5224-1.316-0.76441-3.5352-2.9836-4.2996-4.2996-0.78195-1.3462-1.3458-3.1642-1.5333-4.9443-0.20159-1.913-0.20159-40.218 0-42.131 0.31981-3.035 1.3361-5.1764 3.4684-7.3088 2.1324-2.1324 4.2738-3.1486 7.3088-3.4684 1.913-0.20159 40.218-0.20159 42.131 0 3.0354 0.31985 5.1788 1.3367 7.3097 3.4675 2.1309 2.1309 3.1477 4.2743 3.4675 7.3097 0.20159 1.913 0.20159 40.218 0 42.131-0.31981 3.035-1.3361 5.1764-3.4684 7.3088-2.1324 2.1324-4.2738 3.1486-7.3088 3.4684-1.7388 0.18323-40.622 0.17316-42.346-0.01097zm42.639-3.6229c3.4268-0.4952 6.3572-3.4346 6.8547-6.8759 0.21661-1.4982 0.21403-41.403-0.0028-42.772-0.52704-3.327-3.4593-6.2607-6.7712-6.7746-1.3691-0.21245-41.28-0.21312-42.798-7.114e-4 -3.3495 0.46874-6.3158 3.4026-6.8501 6.7753-0.22465 1.418-0.22278 41.475 0.00199 42.877 0.25876 1.6135 1.1899 3.3646 2.4144 4.5404 1.1882 1.1409 2.8838 2.0145 4.3181 2.2247 1.3333 0.19535 41.483 0.20043 42.833 0.0054z"/><g><path d="m10.22 63.683c-2.216-0.37968-4.0378-1.2074-5.5663-2.529-2.2535-1.9486-3.4093-3.7077-4.0763-6.2041l-0.34066-1.275v-43.507l0.36306-1.254c1.1535-3.9841 4.3299-7.1605 8.314-8.314l1.254-0.36306h43.665l1.254 0.36306c3.9943 1.1564 7.1576 4.3197 8.314 8.314l0.36306 1.254v43.665l-0.36306 1.254c-1.1408 3.9404-4.256 7.0854-8.2306 8.3095l-1.1797 0.36332-21.517 0.0249c-11.834 0.0137-21.848-0.03185-22.253-0.10121zm43.734-3.5402c2.6769-0.56724 5.152-2.8396 6.0388-5.5441 0.29288-0.89321 0.30292-1.645 0.30292-22.678 0-24.44 0.1021-22.348-1.1886-24.345-1.2544-1.9407-3.3388-3.4225-5.3353-3.7927-0.53861-0.099872-8.522-0.15659-21.833-0.15511-23.091 0.0025641-22.03-0.040558-23.93 0.97221-2.0165 1.0748-3.8305 3.4939-4.2284 5.6391-0.23326 1.2576-0.21742 42.414 0.016756 43.537 0.23387 1.1211 0.93558 2.5816 1.7042 3.5469 1.0696 1.3433 3.1535 2.6131 4.7443 2.8908 0.39015 0.0681 10.144 0.13093 21.675 0.13963 17.654 0.0133 21.134-0.01992 22.033-0.21033z"/><path d="m25.815 34.717c-5.2708-5.2708-5.4803-5.5032-5.4803-6.0768 0-1.1573 0.66345-1.8419 1.7852-1.8419 0.28008 0 0.68462 0.12272 0.89899 0.2727 0.21436 0.14999 1.9149 1.7811 3.7789 3.6246 1.864 1.8436 3.4069 3.3524 3.4286 3.3529 0.02168 4.73e-4 0.03941-4.6862 0.03941-10.415v-10.416l0.45271-0.45271c0.80982-0.80982 1.7527-0.80982 2.5626 0l0.45271 0.45271v10.416c0 5.7288 0.05125 10.416 0.1139 10.416 0.06264 0 1.7508-1.6315 3.7515-3.6256 3.4495-3.4381 3.6682-3.6256 4.2289-3.6256 1.18 0 1.8367 0.66395 1.8367 1.8571 0 0.55361-0.26018 0.84138-5.4803 6.0615l-5.4803 5.4803h-1.4087z"/><path d="m12.992 51.565c-0.99222-0.60506-1.0938-1.9433-0.2116-2.7885l0.48127-0.46111 18.394-0.0439c10.116-0.02415 18.548-0.0064 18.736 0.03936 0.18839 0.0458 0.55839 0.2649 0.82222 0.4869 0.89546 0.75348 0.79062 2.1592-0.20638 2.7672-0.46768 0.28519-1.164 0.29604-19.008 0.29604-17.844 0-18.54-0.01085-19.008-0.29604z"/></g></g></svg>
