<?xml version="1.0" encoding="UTF-8"?>
<!-- Generator: Adobe Illustrator 19.0.0, SVG Export Plug-In . SVG Version: 6.00 Build 0)  -->
<svg width="256" height="256" version="1.1" viewBox="0 0 256 256" xml:space="preserve" xmlns="http://www.w3.org/2000/svg">
<g transform="scale(.50794)" stroke-width="1.9688">
	<g stroke-width="1.9688">
		<polygon points="219.6 202.4 219.6 294.4 304.4 248.8"/>
	


	
		<path d="m377.6 0h-251.6c-69.2 0-126 56.8-126 126.4v251.6c0 69.2 56.8 126 126 126h251.6c69.6 0 126.4-56.8 126.4-126.4v-251.2c0-69.6-56.8-126.4-126.4-126.4zm30.4 264.4c0 26.4-2.4 53.2-2.4 53.2s-2.8 22.4-12 32.4c-12 13.2-25.2 13.2-31.2 14-44 3.2-110 3.6-110 3.6s-82-1.2-107.2-3.6c-6.8-1.2-22.8-0.8-34.8-14-9.6-10-12-32.4-12-32.4s-2.4-26.8-2.4-53.2v-24.8c0-26.4 2.4-53.2 2.4-53.2s2.8-22.4 12-32.4c12-13.2 25.2-13.6 31.2-14.4 44.4-3.2 110.4-3.6 110.4-3.6s66 0.4 110 3.6c6 0.8 19.6 1.2 31.6 14 9.6 10 12 32.8 12 32.8s2.4 26.8 2.4 53.2z"/>
	</g>
</g>















<path d="m82.907 184.51c-13.003-0.99278-18.32-2.1679-21.945-4.8501-9.365-6.9302-10.05-10.442-10.05-51.502 0-58.535-2.2673-56.497 64.007-57.553 25.627-0.40844 53.609 0.04811 62.182 1.0146 13.589 1.5319 16.231 2.4009 20.609 6.7792 7.1393 7.1393 9.0292 19.884 8.2863 55.881-0.52658 25.517-1.1261 30.89-4.116 36.89-6.107 12.254-9.9614 13.166-59.042 13.959-23.523 0.38046-50.492 0.10214-59.931-0.61848zm66.756-54.139c3.1381-1.5752 5.7006-3.3102 5.6945-3.8556-0.0125-1.12-2.6877-2.6883-26.761-15.688l-17.117-9.2432v49.371l16.239-8.8602c8.9315-4.8731 18.807-10.149 21.945-11.724z" fill="#fff"/></svg>
