<svg width="64" height="64" viewBox="0 0 8 8" xmlns="http://www.w3.org/2000/svg"><g stroke-width="7.5"><path d="M7.333.8h-.667V.533a.533.533 0 00-1.066 0V.8H4.533V.533a.533.533 0 00-1.066 0V.8H2.4V.533a.533.533 0 00-1.067 0V.8H.667A.667.667 0 000 1.467V6.8a.667.667 0 00.667.666H4.4a.133.133 0 000-.266H.667a.401.401 0 01-.4-.4V2.667h7.466v2.266a.133.133 0 00.267 0V1.467A.667.667 0 007.333.8zM5.867.533a.267.267 0 01.533 0v.8a.267.267 0 01-.533 0zm-2.134 0a.267.267 0 01.534 0v.8a.267.267 0 01-.534 0zM1.6.533a.267.267 0 01.533 0v.8a.267.267 0 01-.533 0zM7.733 2.4H.267v-.933a.401.401 0 01.4-.4h.666v.266a.533.533 0 001.067 0v-.266h1.067v.266a.533.533 0 001.066 0v-.266H5.6v.266a.533.533 0 001.066 0v-.266h.667a.401.401 0 01.4.4z"/><path d="M3.733 3.6a.267.267 0 00-.266-.267h-.534a.267.267 0 00-.266.267V4a.267.267 0 00.266.267h.534A.267.267 0 003.733 4zm-.8.4v-.4h.534V4zm-.8-.4a.267.267 0 00-.266-.267h-.534a.267.267 0 00-.266.267V4a.267.267 0 00.266.267h.534A.267.267 0 002.133 4zm-.8.4v-.4h.534V4zm5.333.267A.267.267 0 006.933 4v-.4a.267.267 0 00-.267-.267h-.533a.267.267 0 00-.266.267V4a.267.267 0 00.266.267zM6.133 3.6h.533V4h-.533zm-2.4 1.2a.267.267 0 00-.266-.267h-.534a.267.267 0 00-.266.267v.4a.267.267 0 00.266.267h.534a.267.267 0 00.266-.267zm-.8.4v-.4h.534v.4zm-.8-.4a.267.267 0 00-.266-.267h-.534a.267.267 0 00-.266.267v.4a.267.267 0 00.266.267h.534a.267.267 0 00.266-.267zm-.8.4v-.4h.534v.4zm2.134.533h-.534A.267.267 0 002.667 6v.4a.267.267 0 00.266.266h.534a.267.267 0 00.266-.266V6a.267.267 0 00-.266-.267zm-.534.667V6h.534v.4zm1.6-2.133h.534A.267.267 0 005.333 4v-.4a.267.267 0 00-.266-.267h-.534a.267.267 0 00-.266.267V4a.267.267 0 00.266.267zm0-.667h.534V4h-.534zm-.266 1.6a.267.267 0 00.266.267.133.133 0 000-.267v-.4h.534a.133.133 0 000-.267h-.534a.267.267 0 00-.266.267zm-2.4.533h-.534A.267.267 0 001.067 6v.4a.267.267 0 00.266.266h.534a.267.267 0 00.266-.266V6a.267.267 0 00-.266-.267zm-.534.667V6h.534v.4z"/><path d="M6.266 4.533A1.733 1.733 0 108 6.266a1.735 1.735 0 00-1.734-1.733zm0 3.2a1.467 1.467 0 111.467-1.467 1.468 1.468 0 01-1.466 1.467z"/><path d="M7.037 5.708L6 6.745l-.471-.472a.133.133 0 00-.189.189l.566.565a.133.133 0 00.188 0l1.131-1.13a.133.133 0 00-.188-.19z"/></g></svg>