<svg width="64" height="48.705" xmlns="http://www.w3.org/2000/svg"><g stroke-width="7.552"><path d="M56.186 0H7.826C3.509 0 0 3.509 0 7.826v33.052c0 4.317 3.51 7.826 7.826 7.826h48.347c4.316 0 7.826-3.51 7.826-7.826V7.839C64.012 3.522 60.503 0 56.186 0zm4.25 40.878a4.255 4.255 0 01-4.25 4.25H7.826a4.255 4.255 0 01-4.25-4.25V7.839a4.255 4.255 0 014.25-4.25h48.347a4.255 4.255 0 014.25 4.25v33.039z"/><path d="M40.362 23.941L56.014 9.905a1.796 1.796 0 00.132-2.53 1.796 1.796 0 00-2.53-.132L32.033 26.616l-4.21-3.76c-.014-.014-.027-.027-.027-.04a2.648 2.648 0 00-.291-.252L10.368 7.23c-.741-.662-1.867-.596-2.529.146s-.596 1.867.146 2.529L23.822 24.06 8.052 38.825a1.795 1.795 0 00-.08 2.53 1.79 1.79 0 002.529.092l16.01-14.976 4.343 3.88a1.787 1.787 0 002.383-.014l4.463-3.999 15.917 15.123c.344.33.794.49 1.231.49.477 0 .94-.186 1.298-.557a1.795 1.795 0 00-.066-2.529z"/></g></svg>