<?xml version="1.0" encoding="UTF-8"?>
<!-- Generator: Adobe Illustrator 19.0.0, SVG Export Plug-In . SVG Version: 6.00 Build 0)  -->
<svg width="64" height="63.987" version="1.1" viewBox="0 0 64 63.987" xml:space="preserve" xmlns="http://www.w3.org/2000/svg">
<g transform="matrix(.12596 0 0 .12596 0 -.006298)" stroke-width="7.9391">
	<g stroke-width="7.9391">
		<path d="m450.6 213.05h-49.2v-126.3l-86.7-86.7h-208.2v213h-49.1c-31.7 0-57.4 25.8-57.4 57.4v180.3c0 31.6 25.7 57.3 57.4 57.3h393.3c31.6 0 57.4-25.7 57.4-57.4v-180.2c-0.1-31.6-25.8-57.4-57.5-57.4zm-131.1-185 54 54h-54zm-196.6-11.6h180.3v81.9h81.9v114.7h-262.2zm262.2 475.2h-262.2v-98.3h262.2zm106.6-41h-0.1c0 22.6-18.4 41-41 41h-49.2v-114.7h-295v114.7h-49c-22.6 0-41-18.4-41-41v-180.2c0-22.6 18.4-41 41-41h393.3c22.6 0 41 18.4 41 41z"/>
	


	
		<rect x="434.3" y="270.45" width="16.4" height="16.4"/>
	


	
		<rect x="401.5" y="270.45" width="16.4" height="16.4"/>
	


	
		<rect x="368.7" y="270.45" width="16.4" height="16.4"/>
	


	
		<rect x="147.5" y="57.45" width="131.1" height="16.4"/>
	


	
		<rect x="147.5" y="114.75" width="213" height="16.4"/>
	


	
		<rect x="147.5" y="172.15" width="213" height="16.4"/>
	</g>
</g>















</svg>
