<svg width="64" height="63.987" xmlns="http://www.w3.org/2000/svg"><g stroke-width="7.939"><path d="M56.758 26.83H50.56V10.92L39.64 0H13.415v26.83H7.23C3.237 26.83 0 30.08 0 34.06v22.71c0 3.98 3.237 7.218 7.23 7.218h49.54c3.98 0 7.23-3.237 7.23-7.23V34.06c-.012-3.98-3.25-7.23-7.242-7.23zM40.244 3.526l6.802 6.802h-6.802zM15.48 2.066h22.711v10.316h10.316v14.447H15.48zm33.027 59.856H15.48V49.54h33.027zm13.428-5.164h-.013a5.171 5.171 0 01-5.164 5.164H50.56V47.474H13.402v14.448H7.23a5.171 5.171 0 01-5.164-5.164V34.06a5.171 5.171 0 015.164-5.165h49.54a5.171 5.171 0 015.165 5.165z"/><path d="M54.704 34.06h2.066v2.065h-2.066zm-4.131 0h2.066v2.065h-2.066zm-4.132 0h2.066v2.065h-2.066zM18.58 7.23h16.512v2.066H18.58zm0 7.218h26.829v2.065h-26.83zm0 7.23h26.829v2.065h-26.83z"/></g></svg>