<svg width="64" height="64" xmlns="http://www.w3.org/2000/svg"><path d="M31.999 0C18.48 0 0 10.217 0 31.999c0 21.228 17.776 31.999 31.999 31.999 24.402 0 31.999-21.379 31.999-32 0-15.67-11.993-31.998-32-31.998zm-7.42 3.01c-3.339 2.848-6.11 7.56-7.9 13.405a29.728 29.728 0 01-6.336-5.052 29.98 29.98 0 0114.236-8.352zM8.969 12.9a31.372 31.372 0 007.144 5.569c-.983 3.817-1.562 8.05-1.638 12.497H2.091A29.804 29.804 0 018.97 12.9zm0 38.197a29.727 29.727 0 01-6.878-18.065h12.384c.076 4.46.655 8.68 1.638 12.497a32.3 32.3 0 00-7.143 5.568zm1.374 1.55a29.728 29.728 0 016.337-5.052c1.789 5.833 4.56 10.557 7.899 13.405a30.185 30.185 0 01-14.236-8.353zm20.623 9.21c-5.367-.681-9.99-6.678-12.485-15.27a30.112 30.112 0 0112.485-3.212zm0-20.536a32.051 32.051 0 00-13.014 3.238c-.844-3.527-1.348-7.42-1.423-11.527h14.437zm0-10.355H16.529c.075-4.107.58-8 1.423-11.527a32.152 32.152 0 0013.014 3.237zm0-10.343A29.871 29.871 0 0118.48 17.41C20.976 8.806 25.6 2.822 30.966 2.142zM55.028 12.9a29.804 29.804 0 016.879 18.066H49.535c-.075-4.46-.655-8.68-1.637-12.497a31.943 31.943 0 007.13-5.569zm-1.373-1.55a29.728 29.728 0 01-6.337 5.053C45.53 10.57 42.758 5.858 39.42 2.998a30.185 30.185 0 0114.236 8.353zM33.032 2.143c5.367.68 9.99 6.677 12.485 15.268a30.062 30.062 0 01-12.485 3.213V2.142zm0 20.534a32.051 32.051 0 0013.014-3.237c.844 3.527 1.348 7.42 1.423 11.527H33.032zm0 10.356h14.437c-.075 4.107-.58 8-1.423 11.527a31.651 31.651 0 00-13.014-3.238zm0 28.824V43.375a29.88 29.88 0 0112.485 3.212c-2.495 8.605-7.118 14.589-12.485 15.27zm6.387-.87c3.339-2.846 6.11-7.558 7.9-13.403a29.728 29.728 0 016.336 5.051 29.98 29.98 0 01-14.236 8.353zm15.61-9.889a31.943 31.943 0 00-7.131-5.568c.982-3.817 1.562-8.05 1.637-12.497h12.372a29.804 29.804 0 01-6.879 18.065z"/></svg>