<svg width="56.715" height="64" viewBox="0 0 14.179 16" xmlns="http://www.w3.org/2000/svg"><g stroke-width="7.42"><path d="M9.277 10.53l.093-.151c1.4-2.319 2.105-4.346 2.095-6.027a4.375 4.375 0 00-8.75-.002c-.011 1.683.694 3.71 2.094 6.029.03.051.062.101.093.152C1.954 10.895 0 11.949 0 13.199 0 14.77 3.113 16 7.09 16s7.089-1.23 7.089-2.8c0-1.251-1.954-2.305-4.902-2.67zM3.186 4.353a3.904 3.904 0 117.807.001c.02 3.35-3.112 7.483-3.904 8.474-.791-.991-3.924-5.123-3.903-8.475zm3.903 11.176c-3.958 0-6.617-1.204-6.617-2.329 0-.997 1.971-1.925 4.708-2.226a24.975 24.975 0 001.73 2.38.236.236 0 00.36 0 24.975 24.975 0 001.729-2.38c2.736.301 4.708 1.229 4.708 2.226 0 1.125-2.659 2.33-6.618 2.33z"/><path d="M5.161 14.163c-1.047-.134-1.887-.37-2.365-.664a.236.236 0 10-.247.402c.534.328 1.44.587 2.552.73a.23.23 0 00.03.001.236.236 0 00.03-.47zm2.325.111c-.33.008-.672.006-1.006-.006a.236.236 0 10-.017.472c.207.007.418.011.626.011q.206 0 .408-.005a.236.236 0 00.23-.24.233.233 0 00-.241-.232zm1.595-9.922A1.992 1.992 0 107.09 6.344a1.994 1.994 0 001.992-1.992zm-3.512 0a1.52 1.52 0 111.52 1.52 1.522 1.522 0 01-1.52-1.52z"/></g></svg>