<svg width="64" height="64.093" xmlns="http://www.w3.org/2000/svg"><path d="M50.607 39.703c-1.313-1.366-2.895-2.097-4.573-2.097-1.663 0-3.26.717-4.626 2.084l-4.274 4.26c-.352-.189-.704-.365-1.042-.54-.487-.244-.947-.474-1.339-.717-4.004-2.544-7.643-5.858-11.133-10.146-1.69-2.137-2.827-3.936-3.652-5.762 1.11-1.015 2.137-2.07 3.138-3.084.379-.38.758-.771 1.136-1.15 2.841-2.84 2.841-6.52 0-9.36L20.55 9.496c-.42-.42-.853-.852-1.258-1.285a63.87 63.87 0 00-2.543-2.516c-1.313-1.298-2.882-1.988-4.532-1.988s-3.247.69-4.6 1.988l-.026.027-4.6 4.64c-1.73 1.731-2.718 3.842-2.935 6.29-.324 3.95.839 7.63 1.732 10.037 2.191 5.911 5.465 11.39 10.348 17.26 5.925 7.075 13.053 12.662 21.197 16.598 3.11 1.475 7.264 3.22 11.903 3.517.284.014.582.027.853.027 3.124 0 5.749-1.122 7.805-3.354.013-.027.04-.041.054-.068.703-.852 1.515-1.623 2.367-2.448a53.265 53.265 0 001.759-1.745c1.339-1.394 2.042-3.017 2.042-4.68 0-1.678-.717-3.288-2.083-4.64zm4.842 14.244c-.013 0-.013.014 0 0-.527.568-1.068 1.082-1.65 1.65-.88.839-1.772 1.718-2.61 2.706-1.367 1.46-2.977 2.15-5.087 2.15-.203 0-.42 0-.622-.013-4.018-.257-7.751-1.826-10.551-3.165-7.656-3.707-14.38-8.969-19.966-15.638-4.613-5.56-7.697-10.7-9.74-16.218-1.257-3.369-1.717-5.993-1.515-8.468.136-1.583.744-2.895 1.867-4.018l4.613-4.613c.663-.622 1.366-.96 2.056-.96.852 0 1.542.514 1.975.947l.04.04c.826.772 1.61 1.57 2.435 2.422.42.433.853.866 1.285 1.312l3.693 3.693c1.434 1.434 1.434 2.76 0 4.193-.392.392-.77.785-1.163 1.164-1.136 1.163-2.218 2.245-3.395 3.3-.027.027-.054.04-.068.068-1.163 1.163-.947 2.3-.703 3.07l.04.122c.96 2.327 2.313 4.518 4.37 7.129l.013.013c3.733 4.6 7.67 8.184 12.012 10.93.555.352 1.123.636 1.664.906.487.244.947.474 1.339.717.054.027.108.068.162.095.46.23.893.338 1.34.338 1.122 0 1.826-.703 2.056-.933l4.626-4.626c.46-.46 1.19-1.015 2.042-1.015.84 0 1.529.528 1.948.988l7.48 7.48c1.394 1.38 1.394 2.8.014 4.234zM34.59 15.246c3.545.595 6.764 2.273 9.334 4.843s4.234 5.79 4.843 9.334c.149.892.92 1.515 1.799 1.515.108 0 .203-.014.311-.027a1.828 1.828 0 001.502-2.11c-.73-4.289-2.76-8.198-5.858-11.296s-7.007-5.126-11.295-5.857c-1-.162-1.934.5-2.11 1.488s.474 1.948 1.475 2.11zm29.381 13.027c-1.204-7.061-4.531-13.487-9.644-18.6s-11.539-8.44-18.6-9.645c-.988-.175-1.92.5-2.097 1.488a1.835 1.835 0 001.502 2.11c6.303 1.07 12.052 4.059 16.624 8.617 4.573 4.572 7.548 10.321 8.617 16.625.149.893.92 1.515 1.8 1.515.107 0 .202-.014.31-.027a1.792 1.792 0 001.488-2.083z"/></svg>