<svg width="64" height="64.001" viewBox="0 0 48 48.001" xmlns="http://www.w3.org/2000/svg"><path d="M38.641 22.558a1.464 1.464 0 00-2.071 0l-2.04 2.04-1.186-1.186 6.076-6.074a2.39 2.39 0 00.003-3.4L34.135 8.65a2.405 2.405 0 00-3.396.001l-6.078 6.079-1.258-1.258 2.04-2.04a1.466 1.466 0 000-2.071L16.512.429a1.465 1.465 0 00-2.072 0L8.8 6.069a1.467 1.467 0 000 2.073l8.93 8.93c.274.276.647.431 1.036.43h.002c.388 0 .76-.155 1.034-.43l2.47-2.47 1.257 1.258-5.821 5.822a9.437 9.437 0 00-5.932 2.214 1.484 1.484 0 00-.525 1.069 1.47 1.47 0 00.427 1.096L22.916 37.3a1.47 1.47 0 002.165-.099 9.337 9.337 0 002.088-7.616l5.043-5.042 1.186 1.185-2.469 2.47a1.464 1.464 0 000 2.071l8.93 8.931c.573.571 1.5.571 2.072 0l5.64-5.64c.572-.573.572-1.5 0-2.071zm-19.875-6.713l-8.74-8.74 5.45-5.45 8.74 8.741zm5.178 20.221L12.911 25.032a7.843 7.843 0 0111.033 11.034zm.595-11.627a9.365 9.365 0 00-4.759-2.567l5.427-5.426c.007-.007.017-.009.023-.015.007-.007.01-.017.016-.024l6.624-6.624a.803.803 0 011.133-.001l5.288 5.288a.784.784 0 010 1.133L26.695 27.798a9.394 9.394 0 00-2.156-3.36zm16.356 13.536l-8.74-8.74 5.45-5.45 8.74 8.741zM17.6 46.401c-8.833-.01-15.99-7.168-16-16a.8.8 0 00-1.6 0c.011 9.716 7.884 17.589 17.6 17.6a.8.8 0 000-1.6z"/><path d="M17.6 41.601c-6.183-.007-11.193-5.018-11.2-11.2a.8.8 0 00-1.6 0c.008 7.066 5.734 12.792 12.8 12.8a.8.8 0 000-1.6z"/><path d="M17.6 36.801a6.408 6.408 0 01-6.4-6.4.8.8 0 00-1.6 0 8.01 8.01 0 008 8 .8.8 0 000-1.6z"/></svg>