<?xml version="1.0" encoding="UTF-8"?>
<svg width="64" height="64.001" version="1.1" viewBox="0 0 48 48.001" xmlns="http://www.w3.org/2000/svg">
 <g>
  <path d="m38.641 22.558c-0.27466-0.27466-0.6471-0.42884-1.0357-0.42884-0.38819 0-0.761 0.15418-1.0357 0.42884l-2.0398 2.0402-1.1854-1.1858 6.0752-6.0748c0.45484-0.44825 0.71119-1.0602 0.71192-1.6989 7.33e-4 -0.63868-0.25452-1.251-0.70863-1.7003l-5.2882-5.2889c-0.93861-0.93495-2.4569-0.93458-3.3952 7.313e-4l-6.0788 6.0785-1.2576-1.2576 2.0402-2.0398c0.57093-0.5724 0.57093-1.4989 0-2.0713l-8.9316-8.9313c-0.57203-0.57166-1.4993-0.57166-2.0713 0l-5.6405 5.6408c-0.5713 0.5724-0.5713 1.4993 0 2.072l8.9305 8.9305c0.27393 0.27613 0.6471 0.43104 1.036 0.42957h0.0015c0.38819 7.5e-4 0.76063-0.15418 1.0346-0.42957l2.4694-2.4694 1.2576 1.2576-5.8217 5.8217c-2.1731 0.03296-4.2686 0.81483-5.932 2.2141-0.31641 0.26734-0.50648 0.65516-0.52442 1.069-0.01685 0.4087 0.1377 0.80604 0.42664 1.0957l11.238 11.24c0.27503 0.2732 0.64674 0.42701 1.0342 0.42737 0.02051 0 0.04175-7.5e-4 0.06189-0.0018 0.41382-0.01794 0.80128-0.20801 1.0686-0.52405 1.7882-2.105 2.5529-4.8934 2.0882-7.6162l5.0435-5.0424 1.1854 1.1854-2.4687 2.469c-0.27539 0.2743-0.4303 0.6471-0.43067 1.036 0 0.38892 0.15454 0.76173 0.42994 1.0364l8.9305 8.9309c0.57276 0.57093 1.4997 0.57093 2.072 0l5.6408-5.6408c0.57093-0.5724 0.57093-1.4989 0-2.071zm-19.875-6.7127-8.7401-8.7397 5.4493-5.4497 8.7401 8.7401zm5.1783 20.221-11.033-11.034c3.1191-2.5364 7.6513-2.3035 10.494 0.53944 2.8429 2.8429 3.0758 7.3752 0.53907 10.494zm0.59473-11.627c-1.2993-1.3048-2.9546-2.1977-4.7586-2.5668l5.4266-5.4266c7e-3 -0.0066 0.01648-0.0084 0.02344-0.01538 0.0066-7e-3 0.0088-0.01611 0.01538-0.02307l6.6245-6.6248c0.31312-0.31165 0.81922-0.31202 1.1327-7.501e-4l5.2882 5.2882c0.15344 0.15088 0.23987 0.35669 0.23987 0.57203-0.0011 0.21167-0.08753 0.41382-0.23987 0.56068l-11.596 11.595c-0.46986-1.2612-1.2056-2.4068-2.1566-3.3589zm16.356 13.536-8.7401-8.7401 5.4493-5.4493 8.7401 8.7401z"/>
  <path d="m17.6 46.401c-8.8328-0.009887-15.99-7.1676-16-16 0-0.44166-0.35816-0.79982-0.79982-0.79982-0.44202 0-0.80018 0.35816-0.80018 0.79982 0.010987 9.7161 7.8843 17.589 17.6 17.6 0.44166 0 0.79982-0.35816 0.79982-0.80018 0-0.44166-0.35816-0.79982-0.79982-0.79982z"/>
  <path d="m17.6 41.601c-6.1828-7e-3 -11.193-5.0175-11.2-11.2 0-0.44166-0.35816-0.79982-0.79982-0.79982-0.44202 0-0.80018 0.35816-0.80018 0.79982 0.00806 7.0661 5.7342 12.792 12.8 12.8 0.44166 0 0.79982-0.35816 0.79982-0.80018 0-0.44166-0.35816-0.79982-0.79982-0.79982z"/>
  <path d="m17.6 36.801c-3.5332-0.0044-6.396-2.8671-6.4004-6.4004 0-0.44166-0.35816-0.79982-0.79982-0.79982-0.44202 0-0.80018 0.35816-0.80018 0.79982 0.00513 4.4162 3.5842 7.9952 8.0004 8.0004 0.44166 0 0.79982-0.35816 0.79982-0.80018 0-0.44166-0.35816-0.79982-0.79982-0.79982z"/>
 </g>
</svg>
